<svg width="88" height="76" viewBox="0 0 88 76" fill="none" xmlns="http://www.w3.org/2000/svg">
<path d="M63.5312 0.5C55.4648 0.5 48.4023 3.96875 44 9.83203C39.5977 3.96875 32.5352 0.5 24.4688 0.5C18.0478 0.507237 11.8918 3.06117 7.3515 7.6015C2.81117 12.1418 0.257237 18.2978 0.25 24.7188C0.25 52.0625 40.793 74.1953 42.5195 75.1094C42.9746 75.3542 43.4833 75.4823 44 75.4823C44.5167 75.4823 45.0254 75.3542 45.4805 75.1094C47.207 74.1953 87.75 52.0625 87.75 24.7188C87.7428 18.2978 85.1888 12.1418 80.6485 7.6015C76.1082 3.06117 69.9522 0.507237 63.5312 0.5ZM44 68.7812C36.8672 64.625 6.5 45.6914 6.5 24.7188C6.5062 19.955 8.40132 15.3882 11.7698 12.0198C15.1382 8.65132 19.705 6.7562 24.4688 6.75C32.0664 6.75 38.4453 10.7969 41.1094 17.2969C41.3448 17.87 41.7453 18.3603 42.26 18.7053C42.7747 19.0503 43.3804 19.2345 44 19.2345C44.6196 19.2345 45.2253 19.0503 45.74 18.7053C46.2547 18.3603 46.6552 17.87 46.8906 17.2969C49.5547 10.7852 55.9336 6.75 63.5312 6.75C68.295 6.7562 72.8618 8.65132 76.2302 12.0198C79.5987 15.3882 81.4938 19.955 81.5 24.7188C81.5 45.6602 51.125 64.6211 44 68.7812Z" fill="#839DB6"/>
</svg>
